<svg width="14" height="13" viewBox="0 0 14 13" fill="none" xmlns="http://www.w3.org/2000/svg">
<path d="M6.05544 0.967389C6.36673 0.0718285 7.63327 0.0718271 7.94456 0.967387L8.82878 3.51116C8.9661 3.90623 9.33479 4.1741 9.75296 4.18262L12.4455 4.23749C13.3934 4.2568 13.7848 5.46135 13.0292 6.03415L10.8832 7.66116C10.5499 7.91385 10.4091 8.34727 10.5302 8.74761L11.31 11.3253C11.5846 12.2328 10.56 12.9772 9.78171 12.4357L7.57118 10.8975C7.22786 10.6586 6.77214 10.6586 6.42882 10.8975L4.21829 12.4357C3.44005 12.9772 2.4154 12.2328 2.68995 11.3253L3.4698 8.74761C3.59091 8.34727 3.45009 7.91385 3.11679 7.66116L0.97076 6.03415C0.215227 5.46135 0.606606 4.2568 1.55453 4.23749L4.24703 4.18262C4.66521 4.1741 5.0339 3.90623 5.17122 3.51116L6.05544 0.967389Z" fill="#FDAF4D"/>
</svg>
